<svg width="40" height="50" viewBox="0 0 40 50" fill="none" xmlns="http://www.w3.org/2000/svg">
<mask id="path-1-inside-1" fill="white">
<path d="M38.5692 24.1752C37.8017 23.0293 37.7502 22.8901 37.6884 21.4454C37.648 20.4998 37.6018 19.4282 36.9705 18.5604C35.9634 17.1768 34.0202 17.0387 33.0883 16.3605C32.2177 15.7268 31.5128 14.0613 30.0392 13.4376V5.18035C30.0392 2.32391 27.7153 0 24.8588 0H5.18035C2.32391 0 0 2.32391 0 5.18035V36.8568C0 39.7132 2.32391 42.0371 5.18035 42.0371H18.6981V48.0289C18.6981 49.7276 20.705 50.6263 21.9726 49.4987L24.9103 46.886C25.167 46.6575 25.5542 46.6575 25.8113 46.886L28.7487 49.4991C30.0174 50.6271 32.0232 49.7264 32.0232 48.0289V38.8061C32.9654 37.6129 33.0368 37.5312 34.4322 37.0136C36.9762 36.0698 37.572 35.2527 37.6884 32.5477C37.7502 31.105 37.8009 30.9642 38.5692 29.8175C39.104 29.0184 39.7109 28.1124 39.7109 26.9966C39.7106 25.8804 39.104 24.9748 38.5692 24.1752ZM5.18035 40.084C3.4008 40.084 1.95312 38.6363 1.95312 36.8568V5.18035C1.95312 3.4008 3.4008 1.95312 5.18035 1.95312H24.8588C26.6384 1.95312 28.0861 3.4008 28.0861 5.18035V13.2629C26.8974 13.4586 25.9773 13.9538 25.0167 13.826C23.8483 13.6703 22.3732 12.8753 20.9255 13.3453C19.8814 13.6844 19.2108 14.5359 18.6191 15.287C17.7494 16.3917 17.6285 16.4825 16.2891 16.9792C13.837 17.889 13.1523 18.6599 13.0329 21.4454C12.9711 22.8862 12.9226 23.0255 12.1521 24.1752C11.5635 25.0545 11.0103 25.9208 11.0103 26.9966C11.0103 28.7361 12.5149 30.0136 12.8547 31.06C13.3789 32.6751 12.2738 35.2638 15.3858 36.655C17.5064 37.6033 17.3168 37.0567 18.6981 38.8061V40.084H5.18035ZM30.0701 48.0289V48.0369C30.0651 48.0411 30.056 48.0453 30.056 48.0464C30.0556 48.0464 30.0525 48.0449 30.0464 48.0396L27.1091 45.4265C26.1123 44.5403 24.609 44.5403 23.6122 45.4269C23.6007 45.4372 20.6772 48.035 20.6684 48.0449C20.6619 48.0438 20.652 48.0407 20.6516 48.0403C20.6512 44.4473 20.6508 54.0343 20.6508 40.5437C22.3617 41.2883 24.0764 40.1424 25.3605 40.1424C26.5567 40.1424 28.2081 41.1666 29.7958 40.6478C29.8938 40.6158 30.0224 40.5647 30.0701 40.5437V48.0289ZM36.9461 28.7311C35.9828 30.1696 35.8154 30.6377 35.7372 32.4642C35.6555 34.3639 35.5442 34.518 33.7528 35.1825C33.1336 35.4125 32.4935 35.6498 31.9389 36.0534C30.8158 36.8709 30.1235 38.401 29.2739 38.7596C28.474 39.096 27.0511 38.2869 25.6244 38.198C23.769 38.0817 22.2183 39.3035 21.2204 38.6348C20.454 38.1191 19.825 36.8125 18.782 36.0534C17.9794 35.469 16.9529 35.218 16.1743 34.869C15.1233 34.3982 15.0505 34.0148 14.9841 32.4642C14.92 30.9688 14.8235 30.3466 14.0442 29.1385C12.7773 27.1736 12.5423 27.103 13.7749 25.2624C14.7526 23.8025 14.9063 23.3402 14.9841 21.529C15.0642 19.6556 15.1573 19.4824 16.9681 18.8106C18.9747 18.066 19.1372 17.7433 20.4101 16.1724C21.392 14.9601 21.6884 14.9791 23.3345 15.4369C25.069 15.9195 25.6015 15.9332 27.3861 15.4373C29.1912 14.936 29.3727 14.978 30.5683 16.4959C31.6623 17.8848 32.0625 18.1835 33.7528 18.8106C35.5442 19.4751 35.6559 19.6293 35.7372 21.5294C35.8154 23.3558 35.9832 23.8239 36.9461 25.2624C38.0268 26.8756 38.0268 27.1171 36.9461 28.7311Z"/>
</mask>
<path d="M38.5692 24.1752C37.8017 23.0293 37.7502 22.8901 37.6884 21.4454C37.648 20.4998 37.6018 19.4282 36.9705 18.5604C35.9634 17.1768 34.0202 17.0387 33.0883 16.3605C32.2177 15.7268 31.5128 14.0613 30.0392 13.4376V5.18035C30.0392 2.32391 27.7153 0 24.8588 0H5.18035C2.32391 0 0 2.32391 0 5.18035V36.8568C0 39.7132 2.32391 42.0371 5.18035 42.0371H18.6981V48.0289C18.6981 49.7276 20.705 50.6263 21.9726 49.4987L24.9103 46.886C25.167 46.6575 25.5542 46.6575 25.8113 46.886L28.7487 49.4991C30.0174 50.6271 32.0232 49.7264 32.0232 48.0289V38.8061C32.9654 37.6129 33.0368 37.5312 34.4322 37.0136C36.9762 36.0698 37.572 35.2527 37.6884 32.5477C37.7502 31.105 37.8009 30.9642 38.5692 29.8175C39.104 29.0184 39.7109 28.1124 39.7109 26.9966C39.7106 25.8804 39.104 24.9748 38.5692 24.1752ZM5.18035 40.084C3.4008 40.084 1.95312 38.6363 1.95312 36.8568V5.18035C1.95312 3.4008 3.4008 1.95312 5.18035 1.95312H24.8588C26.6384 1.95312 28.0861 3.4008 28.0861 5.18035V13.2629C26.8974 13.4586 25.9773 13.9538 25.0167 13.826C23.8483 13.6703 22.3732 12.8753 20.9255 13.3453C19.8814 13.6844 19.2108 14.5359 18.6191 15.287C17.7494 16.3917 17.6285 16.4825 16.2891 16.9792C13.837 17.889 13.1523 18.6599 13.0329 21.4454C12.9711 22.8862 12.9226 23.0255 12.1521 24.1752C11.5635 25.0545 11.0103 25.9208 11.0103 26.9966C11.0103 28.7361 12.5149 30.0136 12.8547 31.06C13.3789 32.6751 12.2738 35.2638 15.3858 36.655C17.5064 37.6033 17.3168 37.0567 18.6981 38.8061V40.084H5.18035ZM30.0701 48.0289V48.0369C30.0651 48.0411 30.056 48.0453 30.056 48.0464C30.0556 48.0464 30.0525 48.0449 30.0464 48.0396L27.1091 45.4265C26.1123 44.5403 24.609 44.5403 23.6122 45.4269C23.6007 45.4372 20.6772 48.035 20.6684 48.0449C20.6619 48.0438 20.652 48.0407 20.6516 48.0403C20.6512 44.4473 20.6508 54.0343 20.6508 40.5437C22.3617 41.2883 24.0764 40.1424 25.3605 40.1424C26.5567 40.1424 28.2081 41.1666 29.7958 40.6478C29.8938 40.6158 30.0224 40.5647 30.0701 40.5437V48.0289ZM36.9461 28.7311C35.9828 30.1696 35.8154 30.6377 35.7372 32.4642C35.6555 34.3639 35.5442 34.518 33.7528 35.1825C33.1336 35.4125 32.4935 35.6498 31.9389 36.0534C30.8158 36.8709 30.1235 38.401 29.2739 38.7596C28.474 39.096 27.0511 38.2869 25.6244 38.198C23.769 38.0817 22.2183 39.3035 21.2204 38.6348C20.454 38.1191 19.825 36.8125 18.782 36.0534C17.9794 35.469 16.9529 35.218 16.1743 34.869C15.1233 34.3982 15.0505 34.0148 14.9841 32.4642C14.92 30.9688 14.8235 30.3466 14.0442 29.1385C12.7773 27.1736 12.5423 27.103 13.7749 25.2624C14.7526 23.8025 14.9063 23.3402 14.9841 21.529C15.0642 19.6556 15.1573 19.4824 16.9681 18.8106C18.9747 18.066 19.1372 17.7433 20.4101 16.1724C21.392 14.9601 21.6884 14.9791 23.3345 15.4369C25.069 15.9195 25.6015 15.9332 27.3861 15.4373C29.1912 14.936 29.3727 14.978 30.5683 16.4959C31.6623 17.8848 32.0625 18.1835 33.7528 18.8106C35.5442 19.4751 35.6559 19.6293 35.7372 21.5294C35.8154 23.3558 35.9832 23.8239 36.9461 25.2624C38.0268 26.8756 38.0268 27.1171 36.9461 28.7311Z" fill="url(#paint0_linear)"/>
<path d="M37.6884 21.4454L36.6893 21.4882V21.4882L37.6884 21.4454ZM36.9705 18.5604L37.7791 17.9721L37.779 17.9719L36.9705 18.5604ZM33.0883 16.3605L32.4998 17.169L32.4998 17.169L33.0883 16.3605ZM30.0392 13.4376H29.0392V14.1003L29.6494 14.3585L30.0392 13.4376ZM18.6981 42.0371H19.6981V41.0371H18.6981V42.0371ZM21.9726 49.4987L21.3081 48.7514L21.308 48.7515L21.9726 49.4987ZM24.9103 46.886L25.5749 47.6332L25.5752 47.633L24.9103 46.886ZM25.8113 46.886L26.476 46.1389L26.4756 46.1385L25.8113 46.886ZM28.7487 49.4991L28.084 50.2462L28.0842 50.2464L28.7487 49.4991ZM32.0232 38.8061L31.2384 38.1864L31.0232 38.4589V38.8061H32.0232ZM34.4322 37.0136L34.78 37.9511H34.78L34.4322 37.0136ZM37.6884 32.5477L38.6875 32.5907L38.6875 32.5905L37.6884 32.5477ZM38.5692 29.8175L39.4 30.3741L39.4003 30.3737L38.5692 29.8175ZM39.7109 26.9966H40.7109V26.9962L39.7109 26.9966ZM28.0861 13.2629L28.2485 14.2496L29.086 14.1117V13.2629H28.0861ZM25.0167 13.826L24.8847 14.8172L24.8849 14.8172L25.0167 13.826ZM20.9255 13.3453L20.6167 12.3942L20.6166 12.3942L20.9255 13.3453ZM18.6191 15.287L17.8336 14.6682L17.8334 14.6684L18.6191 15.287ZM16.2891 16.9792L15.9414 16.0416L15.9413 16.0416L16.2891 16.9792ZM13.0329 21.4454L14.032 21.4883L14.032 21.4883L13.0329 21.4454ZM12.1521 24.1752L11.3214 23.6185L11.3211 23.6189L12.1521 24.1752ZM12.8547 31.06L13.8059 30.7513L13.8058 30.751L12.8547 31.06ZM15.3858 36.655L15.794 35.7421L15.7939 35.7421L15.3858 36.655ZM18.6981 38.8061H19.6981V38.4589L19.4829 38.1864L18.6981 38.8061ZM18.6981 40.084V41.084H19.6981V40.084H18.6981ZM30.0701 48.0369L30.716 48.8003L31.0701 48.5007V48.0369H30.0701ZM30.056 48.0464V49.0464H31.056V48.0464H30.056ZM30.0464 48.0396L29.3817 48.7867L29.3879 48.7921L30.0464 48.0396ZM27.1091 45.4265L27.7738 44.6794L27.7735 44.6791L27.1091 45.4265ZM23.6122 45.4269L22.9476 44.6796L22.9432 44.6836L23.6122 45.4269ZM20.6684 48.0449L20.4946 49.0297L21.0462 49.127L21.4174 48.7075L20.6684 48.0449ZM20.6516 48.0403L19.6516 48.0404L19.6516 48.4546L19.9445 48.7474L20.6516 48.0403ZM20.6508 40.5437L21.0499 39.6268L19.6508 39.0179V40.5437H20.6508ZM29.7958 40.6478L30.1064 41.5984L30.1065 41.5983L29.7958 40.6478ZM30.0701 40.5437H31.0701V39.0112L29.6673 39.6284L30.0701 40.5437ZM36.9461 28.7311L37.777 29.2875V29.2875L36.9461 28.7311ZM35.7372 32.4642L36.7363 32.5071L36.7363 32.5069L35.7372 32.4642ZM33.7528 35.1825L33.405 34.2449L33.4045 34.2451L33.7528 35.1825ZM31.9389 36.0534L31.3505 35.2448L31.3504 35.2449L31.9389 36.0534ZM29.2739 38.7596L29.6616 39.6813L29.6628 39.6808L29.2739 38.7596ZM25.6244 38.198L25.5618 39.1961L25.5623 39.1961L25.6244 38.198ZM21.2204 38.6348L20.6621 39.4644L20.6637 39.4655L21.2204 38.6348ZM18.782 36.0534L18.1934 36.8618L18.1935 36.8619L18.782 36.0534ZM16.1743 34.869L16.5834 33.9565L16.5831 33.9563L16.1743 34.869ZM14.9841 32.4642L15.9832 32.4214L15.9832 32.4214L14.9841 32.4642ZM14.0442 29.1385L13.2037 29.6804L13.2038 29.6806L14.0442 29.1385ZM13.7749 25.2624L12.944 24.706L12.9439 24.706L13.7749 25.2624ZM14.9841 21.529L15.9832 21.5719L15.9832 21.5717L14.9841 21.529ZM16.9681 18.8106L17.3159 19.7482L17.316 19.7482L16.9681 18.8106ZM20.4101 16.1724L21.1871 16.802L21.1872 16.8018L20.4101 16.1724ZM23.3345 15.4369L23.6025 14.4735L23.6024 14.4735L23.3345 15.4369ZM27.3861 15.4373L27.1185 14.4738L27.1183 14.4738L27.3861 15.4373ZM30.5683 16.4959L29.7827 17.1146L29.7827 17.1147L30.5683 16.4959ZM33.7528 18.8106L33.4049 19.7482L33.405 19.7482L33.7528 18.8106ZM35.7372 21.5294L34.7381 21.5721V21.5721L35.7372 21.5294ZM36.9461 25.2624L36.115 25.8186L36.1152 25.819L36.9461 25.2624ZM39.4001 23.6187C38.9998 23.0212 38.8811 22.8162 38.8152 22.6133C38.7483 22.4074 38.7196 22.1525 38.6875 21.4027L36.6893 21.4882C36.719 22.183 36.7469 22.7201 36.9131 23.2314C37.0803 23.7458 37.371 24.1833 37.7383 24.7317L39.4001 23.6187ZM38.6875 21.4027C38.6493 20.51 38.6162 19.1227 37.7791 17.9721L36.1618 19.1487C36.5874 19.7337 36.6466 20.4896 36.6893 21.4882L38.6875 21.4027ZM37.779 17.9719C37.1035 17.0439 36.1439 16.577 35.3736 16.2679C35.1776 16.1892 34.9846 16.1174 34.8077 16.0519C34.6266 15.9849 34.4658 15.9257 34.3138 15.8657C34.0001 15.7418 33.8025 15.6434 33.6767 15.5519L32.4998 17.169C32.84 17.4166 33.2347 17.5898 33.579 17.7258C33.7559 17.7957 33.9405 17.8636 34.1135 17.9276C34.2908 17.9932 34.4607 18.0565 34.6287 18.124C35.3148 18.3993 35.8303 18.6933 36.162 19.1489L37.779 17.9719ZM33.6767 15.5519C33.5634 15.4694 33.4205 15.3257 33.2215 15.0857C33.1253 14.9697 33.0262 14.8442 32.9155 14.7034C32.8073 14.5659 32.6884 14.4144 32.5638 14.2621C32.0741 13.6636 31.4012 12.9282 30.4289 12.5167L29.6494 14.3585C30.1508 14.5708 30.5671 14.98 31.0159 15.5286C31.126 15.663 31.2323 15.7985 31.3435 15.9399C31.4522 16.0781 31.5668 16.2236 31.6822 16.3626C31.9061 16.6326 32.1779 16.9347 32.4998 17.169L33.6767 15.5519ZM31.0392 13.4376V5.18035H29.0392V13.4376H31.0392ZM31.0392 5.18035C31.0392 1.77163 28.2675 -1 24.8588 -1V1C27.163 1 29.0392 2.87619 29.0392 5.18035H31.0392ZM24.8588 -1H5.18035V1H24.8588V-1ZM5.18035 -1C1.77163 -1 -1 1.77163 -1 5.18035H1C1 2.87619 2.87619 1 5.18035 1V-1ZM-1 5.18035V36.8568H1V5.18035H-1ZM-1 36.8568C-1 40.2655 1.77163 43.0371 5.18035 43.0371V41.0371C2.87619 41.0371 1 39.1609 1 36.8568H-1ZM5.18035 43.0371H18.6981V41.0371H5.18035V43.0371ZM17.6981 42.0371V48.0289H19.6981V42.0371H17.6981ZM17.6981 48.0289C17.6981 50.5916 20.7256 51.9464 22.6373 50.2458L21.308 48.7515C20.6844 49.3062 19.6981 48.8635 19.6981 48.0289H17.6981ZM22.6372 50.2459L25.5749 47.6332L24.2458 46.1388L21.3081 48.7514L22.6372 50.2459ZM25.5752 47.633C25.4526 47.7421 25.2685 47.7414 25.1471 47.6335L26.4756 46.1385C25.84 45.5736 24.8815 45.5729 24.2455 46.139L25.5752 47.633ZM25.1467 47.6331L28.084 50.2462L29.4133 48.7519L26.476 46.1389L25.1467 47.6331ZM28.0842 50.2464C29.9978 51.9477 33.0232 50.5893 33.0232 48.0289H31.0232C31.0232 48.8635 30.037 49.3064 29.4131 48.7517L28.0842 50.2464ZM33.0232 48.0289V38.8061H31.0232V48.0289H33.0232ZM32.808 39.4258C33.3083 38.7922 33.4759 38.5939 33.6606 38.4543C33.8335 38.3237 34.0569 38.2194 34.78 37.9511L34.0844 36.076C33.412 36.3254 32.9021 36.5207 32.4549 36.8586C32.0195 37.1876 31.6803 37.6267 31.2384 38.1864L32.808 39.4258ZM34.78 37.9511C36.0783 37.4695 37.1112 36.9457 37.7787 36.0303C38.4465 35.1143 38.6281 33.9718 38.6875 32.5907L36.6893 32.5047C36.6324 33.8287 36.4578 34.4472 36.1626 34.8519C35.8671 35.2572 35.3301 35.6139 34.0844 36.076L34.78 37.9511ZM38.6875 32.5905C38.7196 31.8415 38.7481 31.5866 38.815 31.3803C38.8809 31.1773 38.9997 30.9715 39.4 30.3741L37.7384 29.2609C37.3704 29.8103 37.0797 30.2482 36.9127 30.763C36.7467 31.2744 36.719 31.8113 36.6893 32.5049L38.6875 32.5905ZM39.4003 30.3737C39.9078 29.6153 40.7109 28.4627 40.7109 26.9966H38.7109C38.7109 27.762 38.3002 28.4214 37.7381 29.2614L39.4003 30.3737ZM40.7109 26.9962C40.7104 25.53 39.908 24.3781 39.4004 23.6192L37.738 24.7312C38.3001 25.5715 38.7107 26.2308 38.7109 26.9969L40.7109 26.9962ZM5.18035 39.084C3.95308 39.084 2.95312 38.0841 2.95312 36.8568H0.953122C0.953122 39.1886 2.84851 41.084 5.18035 41.084V39.084ZM2.95312 36.8568V5.18035H0.953122V36.8568H2.95312ZM2.95312 5.18035C2.95312 3.95308 3.95308 2.95312 5.18035 2.95312V0.953122C2.84851 0.953122 0.953122 2.84851 0.953122 5.18035H2.95312ZM5.18035 2.95312H24.8588V0.953123H5.18035V2.95312ZM24.8588 2.95312C26.0861 2.95312 27.0861 3.95308 27.0861 5.18035H29.086C29.086 2.84851 27.1907 0.953122 24.8588 0.953122V2.95312ZM27.0861 5.18035V13.2629H29.086V5.18035H27.0861ZM27.9236 12.2762C27.2661 12.3845 26.6394 12.5851 26.2095 12.6992C25.7344 12.8252 25.4241 12.8713 25.1486 12.8347L24.8849 14.8172C25.57 14.9084 26.2 14.7709 26.7222 14.6323C27.2896 14.4818 27.7173 14.3371 28.2485 14.2496L27.9236 12.2762ZM25.1488 12.8347C24.9296 12.8055 24.6752 12.7431 24.3523 12.6546C24.0493 12.5716 23.6743 12.4623 23.2992 12.3763C22.541 12.2026 21.5973 12.0759 20.6167 12.3942L21.2343 14.2965C21.7014 14.1448 22.219 14.1806 22.8525 14.3258C23.1731 14.3993 23.4765 14.4884 23.824 14.5836C24.1515 14.6733 24.5197 14.7686 24.8847 14.8172L25.1488 12.8347ZM20.6166 12.3942C19.2387 12.8418 18.3937 13.9571 17.8336 14.6682L19.4047 15.9058C20.0279 15.1146 20.5241 14.5271 21.2344 14.2964L20.6166 12.3942ZM17.8334 14.6684C17.3808 15.2433 17.2166 15.4254 17.0419 15.5525C16.8666 15.68 16.6371 15.7836 15.9414 16.0416L16.6368 17.9168C17.2805 17.6781 17.7811 17.4879 18.2185 17.1698C18.6566 16.8511 18.9877 16.4354 19.4048 15.9056L17.8334 14.6684ZM15.9413 16.0416C14.6969 16.5034 13.6668 17.0045 12.9872 17.9077C12.3029 18.817 12.0953 19.9685 12.0338 21.4026L14.032 21.4883C14.0899 20.1369 14.2843 19.5102 14.5853 19.1102C14.8909 18.7041 15.4293 18.3648 16.637 17.9167L15.9413 16.0416ZM12.0338 21.4026C12.0017 22.1516 11.9737 22.4053 11.9069 22.6113C11.8414 22.8138 11.7227 23.0198 11.3214 23.6185L12.9828 24.732C13.3521 24.1809 13.6429 23.7425 13.8096 23.2276C13.9752 22.7164 14.0023 22.18 14.032 21.4883L12.0338 21.4026ZM11.3211 23.6189C10.7508 24.4709 10.0103 25.5763 10.0103 26.9966H12.0103C12.0103 26.2654 12.3761 25.6382 12.9831 24.7315L11.3211 23.6189ZM10.0103 26.9966C10.0103 28.1565 10.5131 29.1102 10.9579 29.8194C11.1473 30.1216 11.4481 30.5605 11.5817 30.7686C11.7641 31.0526 11.861 31.2375 11.9037 31.3689L13.8058 30.751C13.6786 30.3592 13.46 29.9921 13.2646 29.6879C13.0205 29.3078 12.8815 29.1224 12.6523 28.757C12.2598 28.131 12.0103 27.5761 12.0103 26.9966H10.0103ZM11.9036 31.3687C11.9861 31.623 12.0153 31.9558 12.0344 32.458C12.0519 32.9155 12.061 33.5183 12.1647 34.1131C12.272 34.7292 12.487 35.3923 12.9466 36.0149C13.4077 36.6395 14.0696 37.162 14.9777 37.5679L15.7939 35.7421C15.146 35.4524 14.779 35.1296 14.5557 34.8271C14.3309 34.5226 14.2059 34.1767 14.135 33.7698C14.0604 33.3417 14.053 32.9075 14.033 32.3819C14.0147 31.901 13.9854 31.3045 13.8059 30.7513L11.9036 31.3687ZM14.9776 37.5679C15.5383 37.8186 15.9489 37.9715 16.263 38.0853C16.5974 38.2065 16.7384 38.256 16.8622 38.3196C17.034 38.4079 17.2114 38.5368 17.9132 39.4258L19.4829 38.1864C18.8035 37.3259 18.385 36.8535 17.7762 36.5407C17.5096 36.4037 17.2141 36.3027 16.9444 36.205C16.6546 36.1 16.2936 35.9655 15.794 35.7421L14.9776 37.5679ZM17.6981 38.8061V40.084H19.6981V38.8061H17.6981ZM18.6981 39.084H5.18035V41.084H18.6981V39.084ZM29.0701 48.0289V48.0369H31.0701V48.0289H29.0701ZM29.4241 47.2735C29.4988 47.2103 29.5742 47.169 29.5529 47.1816C29.5529 47.1816 29.5528 47.1816 29.5527 47.1817C29.5526 47.1818 29.5525 47.1819 29.5523 47.182C29.5519 47.1822 29.5513 47.1825 29.5505 47.183C29.5492 47.1838 29.5465 47.1854 29.5433 47.1873C29.5384 47.1903 29.5235 47.1992 29.5052 47.2114C29.4939 47.2188 29.4451 47.2509 29.3899 47.3003C29.3635 47.3239 29.3046 47.3786 29.2451 47.4611C29.2008 47.5225 29.056 47.7331 29.056 48.0464H31.056C31.056 48.3596 30.9112 48.5701 30.867 48.6313C30.8077 48.7135 30.749 48.768 30.7228 48.7914C30.6681 48.8403 30.6201 48.8719 30.6097 48.8787C30.5835 48.8961 30.5567 48.9115 30.5694 48.904C30.5699 48.9037 30.5871 48.8937 30.607 48.8809C30.6247 48.8695 30.6672 48.8416 30.716 48.8003L29.4241 47.2735ZM30.056 47.0464C30.1927 47.0464 30.2966 47.0754 30.3242 47.0831C30.3682 47.0953 30.4028 47.1083 30.4234 47.1164C30.4655 47.1331 30.4981 47.1493 30.5169 47.1591C30.5567 47.1798 30.5878 47.1994 30.608 47.2129C30.6504 47.2412 30.6829 47.2677 30.7049 47.287L29.3879 48.7921C29.4161 48.8168 29.4531 48.8467 29.4986 48.877C29.5205 48.8916 29.5528 48.9119 29.5934 48.9331C29.6126 48.9431 29.6456 48.9595 29.6879 48.9763C29.7087 48.9845 29.7434 48.9974 29.7875 49.0097C29.8152 49.0174 29.9191 49.0464 30.056 49.0464V47.0464ZM30.7111 47.2924L27.7738 44.6794L26.4444 46.1736L29.3818 48.7867L30.7111 47.2924ZM27.7735 44.6791C26.3978 43.4561 24.3233 43.4561 22.9476 44.6797L24.2768 46.1741C24.8946 45.6246 25.8268 45.6246 26.4447 46.1739L27.7735 44.6791ZM22.9432 44.6836C22.9434 44.6834 22.7632 44.8435 22.4843 45.0914C22.2085 45.3366 21.8416 45.6626 21.4749 45.9886C21.1082 46.3147 20.7414 46.6407 20.4658 46.886C20.328 47.0086 20.2128 47.1111 20.1316 47.1834C20.0911 47.2195 20.0588 47.2483 20.0363 47.2684C20.0252 47.2784 20.0158 47.2868 20.0089 47.293C20.0056 47.296 20.0017 47.2994 19.9981 47.3028C19.9965 47.3042 19.9931 47.3073 19.9892 47.3109C19.9874 47.3125 19.9831 47.3165 19.9778 47.3217C19.9749 47.3244 19.9679 47.3312 19.9637 47.3354C19.9564 47.3427 19.9341 47.366 19.9194 47.3823L21.4174 48.7075C21.4027 48.7238 21.3804 48.747 21.3733 48.7542C21.3691 48.7583 21.3622 48.7651 21.3595 48.7677C21.3543 48.7726 21.3504 48.7762 21.3491 48.7775C21.3459 48.7803 21.3438 48.7823 21.3437 48.7824C21.3432 48.7829 21.3437 48.7823 21.3463 48.7801C21.3509 48.7759 21.3584 48.7691 21.3692 48.7595C21.3905 48.7405 21.4219 48.7125 21.4622 48.6766C21.5427 48.6048 21.6574 48.5027 21.7951 48.3802C22.0705 48.1353 22.437 47.8094 22.8037 47.4834C23.5338 46.8344 24.2724 46.1781 24.2811 46.1702L22.9432 44.6836ZM20.8422 47.0601C20.8888 47.0683 20.9228 47.0781 20.9324 47.0808C20.9402 47.083 20.9519 47.0865 20.9666 47.0913C20.9725 47.0933 20.9883 47.0985 21.0085 47.1062C21.0172 47.1095 21.0398 47.1183 21.0681 47.1312C21.0816 47.1374 21.1092 47.1503 21.1427 47.1692C21.1598 47.1788 21.1862 47.1944 21.2172 47.2156C21.2441 47.2341 21.2987 47.2733 21.3587 47.3332L19.9445 48.7474C20.0465 48.8495 20.148 48.9044 20.1606 48.9115C20.1942 48.9304 20.2218 48.9434 20.2354 48.9496C20.2639 48.9627 20.2868 48.9715 20.2958 48.9749C20.3166 48.9829 20.3334 48.9885 20.3404 48.9908C20.3572 48.9963 20.3719 49.0007 20.383 49.0038C20.3992 49.0085 20.4415 49.0203 20.4946 49.0297L20.8422 47.0601ZM21.6516 48.0402C21.6515 47.5911 21.6515 47.3478 21.6515 47.2395C21.6514 47.2125 21.6514 47.1936 21.6514 47.1821C21.6514 47.1765 21.6514 47.1719 21.6514 47.1688C21.6514 47.168 21.6514 47.1669 21.6514 47.1657C21.6514 47.1651 21.6514 47.1638 21.6514 47.1631C21.6514 47.1618 21.6513 47.1584 21.6513 47.1561C21.6512 47.1498 21.6388 47.0113 21.6091 46.8819C20.5216 46.1781 19.6517 47.1463 19.6515 47.1546C19.6515 47.1573 19.6514 47.1612 19.6514 47.1625C19.6514 47.1634 19.6514 47.1648 19.6514 47.1654C19.6514 47.173 19.6513 47.2062 19.6513 47.2498C19.6512 47.4342 19.6511 47.8714 19.6511 48.0031C19.6511 48.0195 19.6511 48.0305 19.651 48.0355C19.651 48.0368 19.651 48.037 19.651 48.0367C19.651 48.0365 19.651 48.0359 19.6511 48.0356C19.6511 48.035 19.6511 48.0331 19.6511 48.0318C19.6511 48.0287 19.6517 48.0054 19.6526 47.9853C20.6621 47.0409 21.6508 48.0177 21.651 48.028C21.651 48.0353 21.651 48.0426 21.651 48.0336C21.651 48.0194 21.651 47.9769 21.651 47.8966C21.6509 47.7366 21.6509 47.4283 21.6509 46.9011C21.6509 45.8466 21.6508 43.9164 21.6508 40.5437H19.6508C19.6508 43.9164 19.6509 45.8467 19.6509 46.9012C19.6509 47.4284 19.6509 47.7368 19.651 47.897C19.651 47.9768 19.651 48.0204 19.651 48.0358C19.651 48.0378 19.651 48.0396 19.651 48.0411C19.651 48.0418 19.651 48.0428 19.651 48.0438C19.651 48.0443 19.651 48.0455 19.651 48.0462C19.6511 48.0474 19.6511 48.051 19.6511 48.0535C19.6513 48.0638 20.64 49.0407 21.6495 48.0963C21.6504 48.0761 21.651 48.0528 21.651 48.0495C21.651 48.0463 21.651 48.0435 21.651 48.0434C21.651 48.0418 21.651 48.04 21.651 48.0385C21.6511 48.0324 21.6511 48.0204 21.6511 48.0042C21.6511 47.8745 21.6512 47.4318 21.6513 47.2508C21.6513 47.228 21.6513 47.2093 21.6514 47.1957C21.6514 47.1807 21.6514 47.1749 21.6514 47.1752C21.6514 47.1756 21.6514 47.1767 21.6514 47.1774C21.6514 47.1785 21.6513 47.1823 21.6513 47.1848C21.6511 47.1931 20.7811 48.1612 19.6937 47.4574C19.664 47.328 19.6516 47.1896 19.6515 47.1834C19.6514 47.1768 19.6514 47.1707 19.6514 47.1744C19.6514 47.1755 19.6514 47.1785 19.6514 47.1841C19.6514 47.195 19.6514 47.2134 19.6515 47.2404C19.6515 47.3482 19.6515 47.5913 19.6516 48.0404L21.6516 48.0402ZM20.2518 41.4606C21.4103 41.9648 22.5309 41.8038 23.3999 41.5945C23.7899 41.5005 24.2891 41.3521 24.5754 41.2776C24.9275 41.1859 25.173 41.1424 25.3605 41.1424V39.1424C24.9058 39.1424 24.4555 39.2421 24.0716 39.342C23.6218 39.4591 23.3445 39.5506 22.9316 39.6501C22.1945 39.8276 21.6023 39.8672 21.0499 39.6268L20.2518 41.4606ZM25.3605 41.1424C25.5313 41.1424 25.7606 41.1806 26.0899 41.2638C26.2501 41.3043 26.4169 41.3508 26.6031 41.4026C26.7851 41.4532 26.9836 41.5082 27.1876 41.5595C27.9864 41.7603 29.0307 41.9499 30.1064 41.5984L29.4852 39.6973C28.9733 39.8646 28.3979 39.8015 27.6751 39.6198C27.4986 39.5755 27.3229 39.5268 27.1387 39.4756C26.9588 39.4256 26.7676 39.3722 26.5799 39.3248C26.2135 39.2322 25.7878 39.1424 25.3605 39.1424V41.1424ZM30.1065 41.5983C30.239 41.555 30.3984 41.4918 30.4728 41.459L29.6673 39.6284C29.6675 39.6283 29.6602 39.6315 29.6445 39.6379C29.63 39.6437 29.612 39.6509 29.5922 39.6585C29.5504 39.6746 29.5114 39.6887 29.4851 39.6973L30.1065 41.5983ZM29.0701 40.5437V48.0289H31.0701V40.5437H29.0701ZM36.1151 28.1747C35.6302 28.899 35.2778 29.4742 35.0594 30.1408C34.8415 30.8062 34.7776 31.4985 34.7381 32.4214L36.7363 32.5069C36.7749 31.6034 36.8339 31.1484 36.96 30.7635C37.0857 30.3799 37.2987 30.0017 37.777 29.2875L36.1151 28.1747ZM34.7381 32.4212C34.7174 32.9029 34.6966 33.2078 34.6589 33.4284C34.6235 33.6353 34.5853 33.6876 34.5783 33.6971C34.5711 33.707 34.5322 33.76 34.3444 33.858C34.1447 33.9623 33.859 34.0765 33.405 34.2449L34.1006 36.1201C34.5423 35.9562 34.9422 35.802 35.2697 35.6311C35.6092 35.454 35.9392 35.2252 36.194 34.876C36.449 34.5265 36.5658 34.1425 36.6303 33.7654C36.6924 33.402 36.7161 32.9753 36.7363 32.5071L34.7381 32.4212ZM33.4045 34.2451C32.8072 34.4671 32.0347 34.747 31.3505 35.2448L32.5273 36.862C32.9524 36.5527 33.4601 36.358 34.101 36.1199L33.4045 34.2451ZM31.3504 35.2449C30.6559 35.7505 30.1147 36.4596 29.7201 36.9575C29.5063 37.2272 29.3357 37.4376 29.1756 37.6015C29.0119 37.7691 28.9191 37.8239 28.8851 37.8383L29.6628 39.6808C30.0536 39.5159 30.3659 39.245 30.606 38.9993C30.8497 38.7499 31.0817 38.4594 31.2876 38.1997C31.7323 37.6385 32.0988 37.1739 32.5274 36.8619L31.3504 35.2449ZM28.8862 37.8378C28.9109 37.8274 28.8678 37.8536 28.6778 37.8324C28.492 37.8117 28.2585 37.7576 27.9451 37.6729C27.3729 37.5183 26.5292 37.2525 25.6866 37.2L25.5623 39.1961C26.1464 39.2325 26.7274 39.4156 27.4234 39.6037C27.744 39.6903 28.1054 39.781 28.456 39.8201C28.8023 39.8587 29.237 39.8599 29.6616 39.6813L28.8862 37.8378ZM25.687 37.2C24.5528 37.1289 23.5147 37.4702 22.8325 37.6602C22.4571 37.7648 22.2053 37.8224 22.0093 37.8341C21.8354 37.8444 21.7898 37.8126 21.777 37.8041L20.6637 39.4655C21.1499 39.7914 21.6723 39.8576 22.1279 39.8306C22.5612 39.8048 23.0002 39.6897 23.3691 39.5869C24.1756 39.3623 24.8406 39.1508 25.5618 39.1961L25.687 37.2ZM21.7787 37.8052C21.5571 37.6561 21.3178 37.3582 20.89 36.816C20.514 36.3395 20.0185 35.7165 19.3705 35.2449L18.1935 36.8619C18.5885 37.1494 18.9289 37.5593 19.3198 38.0548C19.6589 38.4845 20.1173 39.0978 20.6621 39.4644L21.7787 37.8052ZM19.3706 35.245C18.8665 34.8779 18.3161 34.6323 17.8365 34.4428C17.3013 34.2314 16.9536 34.1225 16.5834 33.9565L15.7652 35.7814C16.1735 35.9645 16.7284 36.1555 17.1018 36.303C17.5307 36.4724 17.8949 36.6445 18.1934 36.8618L19.3706 35.245ZM16.5831 33.9563C16.1311 33.7539 16.1265 33.6712 16.1209 33.6589C16.1008 33.6146 16.0693 33.5184 16.0426 33.3042C16.0157 33.0886 15.9999 32.8122 15.9832 32.4214L13.985 32.5069C14.0155 33.2187 14.0444 33.9219 14.2991 34.4842C14.6093 35.1689 15.1666 35.5133 15.7655 35.7816L16.5831 33.9563ZM15.9832 32.4214C15.9512 31.6753 15.9094 31.0483 15.7496 30.4397C15.5841 29.8096 15.3082 29.2532 14.8845 28.5964L13.2038 29.6806C13.5595 30.2319 13.7215 30.5907 13.8151 30.9476C13.9145 31.3259 13.9529 31.7577 13.985 32.507L15.9832 32.4214ZM14.8846 28.5967C14.5486 28.0754 14.3245 27.7456 14.1592 27.4607C13.9978 27.1828 13.9699 27.0722 13.9642 27.0271C13.9624 27.013 13.9512 26.9578 14.0328 26.7741C14.1255 26.5653 14.2971 26.2797 14.6058 25.8188L12.9439 24.706C12.6363 25.1654 12.3752 25.5789 12.2049 25.9624C12.0234 26.371 11.9191 26.8013 11.9803 27.2806C12.0376 27.7288 12.229 28.1194 12.4294 28.4648C12.626 28.8033 12.9063 29.2191 13.2037 29.6804L14.8846 28.5967ZM14.6057 25.8189C15.0986 25.0829 15.4514 24.5034 15.668 23.8364C15.884 23.1716 15.944 22.4837 15.9832 21.5719L13.985 21.486C13.9464 22.3854 13.8906 22.8344 13.7659 23.2185C13.6418 23.6005 13.4288 23.9821 12.944 24.706L14.6057 25.8189ZM15.9832 21.5717C16.0036 21.0947 16.023 20.7928 16.0597 20.5725C16.094 20.3661 16.1317 20.3131 16.1393 20.3026C16.1467 20.2923 16.1857 20.2384 16.373 20.1393C16.5721 20.034 16.8595 19.9175 17.3159 19.7482L16.6203 17.8731C16.1713 18.0396 15.7681 18.1967 15.4379 18.3714C15.0959 18.5522 14.7672 18.7846 14.5149 19.1358C14.2628 19.4867 14.1491 19.8702 14.0868 20.2442C14.0269 20.6042 14.0047 21.0266 13.985 21.4863L15.9832 21.5717ZM17.316 19.7482C18.3411 19.3677 19.0141 19.0545 19.599 18.5741C20.1499 18.1215 20.5914 17.5371 21.1871 16.802L19.6332 15.5428C18.9559 16.3786 18.6797 16.7409 18.3295 17.0286C18.0132 17.2884 17.6016 17.5089 16.6202 17.8731L17.316 19.7482ZM21.1872 16.8018C21.6925 16.1779 21.8168 16.1598 21.8404 16.1545C21.8638 16.1493 21.9414 16.1376 22.1517 16.1738C22.3687 16.2111 22.6481 16.284 23.0665 16.4004L23.6024 14.4735C23.1979 14.361 22.8229 14.2598 22.4907 14.2027C22.1518 14.1444 21.7853 14.1179 21.4061 14.2022C20.6245 14.3761 20.1096 14.9546 19.633 15.543L21.1872 16.8018ZM23.0664 16.4003C23.9408 16.6436 24.6199 16.8018 25.3384 16.804C26.0577 16.8062 26.7493 16.6521 27.6538 16.4008L27.1183 14.4738C26.2383 14.7184 25.7713 14.8053 25.3446 14.804C24.9171 14.8027 24.4627 14.7128 23.6025 14.4735L23.0664 16.4003ZM27.6536 16.4008C28.1131 16.2732 28.4045 16.1993 28.623 16.167C28.8272 16.1368 28.8857 16.1569 28.8948 16.1598C28.9048 16.1631 28.9673 16.1833 29.1198 16.3331C29.2815 16.4919 29.4805 16.7309 29.7827 17.1146L31.3539 15.8771C31.0583 15.5019 30.7863 15.1665 30.5213 14.9062C30.2471 14.6369 29.9272 14.3933 29.5167 14.259C29.1054 14.1244 28.7053 14.1331 28.3303 14.1885C27.9698 14.2419 27.5615 14.3507 27.1185 14.4738L27.6536 16.4008ZM29.7827 17.1147C30.3341 17.8146 30.7796 18.3327 31.3478 18.747C31.9158 19.1611 32.5514 19.4315 33.4049 19.7482L34.1006 17.8731C33.2638 17.5626 32.8542 17.3702 32.5261 17.1309C32.1981 16.8917 31.8965 16.566 31.3538 15.8771L29.7827 17.1147ZM33.405 19.7482C33.859 19.9166 34.1447 20.0309 34.3445 20.1351C34.5324 20.2331 34.5713 20.2862 34.5785 20.2961C34.5854 20.3056 34.6237 20.3579 34.659 20.5648C34.6967 20.7854 34.7175 21.0904 34.7381 21.5721L36.7363 21.4866C36.7162 21.0183 36.6926 20.5915 36.6305 20.228C36.566 19.8508 36.4491 19.4668 36.1941 19.1172C35.9393 18.768 35.6093 18.5392 35.2698 18.362C34.9422 18.1911 34.5423 18.0369 34.1006 17.8731L33.405 19.7482ZM34.7381 21.5721C34.7776 22.4951 34.8416 23.1875 35.0596 23.8528C35.278 24.5194 35.6303 25.0944 36.115 25.8186L37.7771 24.7062C37.299 23.9919 37.0859 23.6137 36.9602 23.23C36.834 22.845 36.7749 22.39 36.7363 21.4866L34.7381 21.5721ZM36.1152 25.819C36.3873 26.2251 36.5546 26.4919 36.6566 26.6993C36.7526 26.8945 36.7566 26.9711 36.7566 26.9965C36.7566 27.0219 36.7525 27.0986 36.6565 27.2939C36.5545 27.5015 36.3872 27.7684 36.1151 28.1747L37.777 29.2875C38.0452 28.8869 38.2832 28.5183 38.4514 28.1762C38.6255 27.8219 38.7566 27.4348 38.7566 26.9965C38.7566 26.5581 38.6255 26.171 38.4513 25.8167C38.2831 25.4747 38.0451 25.1063 37.7769 24.7059L36.1152 25.819Z" fill="url(#paint1_linear)" mask="url(#path-1-inside-1)"/>
<path d="M28.5931 21.2232L28.5928 21.2231C24.2205 18.7692 18.7451 21.9316 18.7451 26.9966C18.7451 30.6445 21.7125 33.6119 25.3604 33.6119C29.0088 33.6119 31.9762 30.6446 31.9762 26.9966C31.9762 26.7332 32.1896 26.52 32.4523 26.52C32.7156 26.52 32.9289 26.7333 32.9289 26.9966C32.9289 31.1695 29.5334 34.5651 25.3604 34.5651C21.1875 34.5651 17.792 31.1695 17.792 26.9966C17.792 21.2062 24.0563 17.584 29.0594 20.3918C29.2887 20.5208 29.3702 20.8115 29.2416 21.0404L29.2413 21.0409C29.1128 21.2705 28.8225 21.3521 28.5931 21.2232Z" fill="url(#paint2_linear)" stroke="url(#paint3_linear)"/>
<path d="M31.4361 23.8083H31.4334C31.1704 23.8083 30.9568 23.5949 30.9568 23.3318C30.9568 23.069 31.17 22.8556 31.4334 22.8556C31.6976 22.8556 31.9111 23.0698 31.9111 23.3318C31.9111 23.5959 31.6981 23.8083 31.4361 23.8083Z" fill="url(#paint4_linear)" stroke="url(#paint5_linear)"/>
<path d="M23.1899 8.64685H6.8493C6.58617 8.64685 6.37274 8.43329 6.37274 8.17029C6.37274 7.90703 6.58605 7.69373 6.8493 7.69373H23.1899C23.4529 7.69373 23.6665 7.90716 23.6665 8.17029C23.6665 8.43316 23.4528 8.64685 23.1899 8.64685Z" fill="url(#paint6_linear)" stroke="url(#paint7_linear)"/>
<path d="M15.3957 15.3524H6.8493C6.58617 15.3524 6.37274 15.1388 6.37274 14.8758C6.37274 14.6125 6.58605 14.3992 6.8493 14.3992H15.3957C15.659 14.3992 15.8723 14.6125 15.8723 14.8758C15.8723 15.1388 15.6589 15.3524 15.3957 15.3524Z" fill="url(#paint8_linear)" stroke="url(#paint9_linear)"/>
<path d="M10.318 22.0578H6.8493C6.58617 22.0578 6.37274 21.8442 6.37274 21.5812C6.37274 21.318 6.58605 21.1047 6.8493 21.1047H10.318C10.5813 21.1047 10.7946 21.318 10.7946 21.5812C10.7946 21.8442 10.5811 22.0578 10.318 22.0578Z" fill="url(#paint10_linear)" stroke="url(#paint11_linear)"/>
<path d="M6.8493 33.6367H10.9039C11.1669 33.6367 11.3805 33.8502 11.3805 34.1133C11.3805 34.3762 11.1668 34.5898 10.9039 34.5898H6.8493C6.58617 34.5898 6.37274 34.3763 6.37274 34.1133C6.37274 33.85 6.58605 33.6367 6.8493 33.6367Z" fill="url(#paint12_linear)" stroke="url(#paint13_linear)"/>
<path d="M8.56019 28.7632H6.8493C6.58617 28.7632 6.37274 28.5497 6.37274 28.2867C6.37274 28.0234 6.58605 27.8101 6.8493 27.8101H8.56019C8.82345 27.8101 9.03675 28.0234 9.03675 28.2867C9.03675 28.5497 8.82332 28.7632 8.56019 28.7632Z" fill="url(#paint14_linear)" stroke="url(#paint15_linear)"/>
<defs>
<linearGradient id="paint0_linear" x1="39.7109" y1="0" x2="-1.00333" y2="0" gradientUnits="userSpaceOnUse">
<stop stop-color="#FF7528"/>
<stop offset="1" stop-color="#FFB120"/>
</linearGradient>
<linearGradient id="paint1_linear" x1="39.7109" y1="0" x2="-1.00333" y2="0" gradientUnits="userSpaceOnUse">
<stop stop-color="#FF7528"/>
<stop offset="1" stop-color="#FFB120"/>
</linearGradient>
<linearGradient id="paint2_linear" x1="33.4289" y1="18.9217" x2="16.8843" y2="18.9217" gradientUnits="userSpaceOnUse">
<stop stop-color="#FF7528"/>
<stop offset="1" stop-color="#FFB120"/>
</linearGradient>
<linearGradient id="paint3_linear" x1="33.4289" y1="18.9217" x2="16.8843" y2="18.9217" gradientUnits="userSpaceOnUse">
<stop stop-color="#FF7528"/>
<stop offset="1" stop-color="#FFB120"/>
</linearGradient>
<linearGradient id="paint4_linear" x1="32.4111" y1="22.3556" x2="30.4075" y2="22.3556" gradientUnits="userSpaceOnUse">
<stop stop-color="#FF7528"/>
<stop offset="1" stop-color="#FFB120"/>
</linearGradient>
<linearGradient id="paint5_linear" x1="32.4111" y1="22.3556" x2="30.4075" y2="22.3556" gradientUnits="userSpaceOnUse">
<stop stop-color="#FF7528"/>
<stop offset="1" stop-color="#FFB120"/>
</linearGradient>
<linearGradient id="paint6_linear" x1="24.1665" y1="7.19373" x2="5.41053" y2="7.19373" gradientUnits="userSpaceOnUse">
<stop stop-color="#FF7528"/>
<stop offset="1" stop-color="#FFB120"/>
</linearGradient>
<linearGradient id="paint7_linear" x1="24.1665" y1="7.19373" x2="5.41053" y2="7.19373" gradientUnits="userSpaceOnUse">
<stop stop-color="#FF7528"/>
<stop offset="1" stop-color="#FFB120"/>
</linearGradient>
<linearGradient id="paint8_linear" x1="16.3723" y1="13.8992" x2="5.60746" y2="13.8992" gradientUnits="userSpaceOnUse">
<stop stop-color="#FF7528"/>
<stop offset="1" stop-color="#FFB120"/>
</linearGradient>
<linearGradient id="paint9_linear" x1="16.3723" y1="13.8992" x2="5.60746" y2="13.8992" gradientUnits="userSpaceOnUse">
<stop stop-color="#FF7528"/>
<stop offset="1" stop-color="#FFB120"/>
</linearGradient>
<linearGradient id="paint10_linear" x1="11.2946" y1="20.6047" x2="5.73575" y2="20.6047" gradientUnits="userSpaceOnUse">
<stop stop-color="#FF7528"/>
<stop offset="1" stop-color="#FFB120"/>
</linearGradient>
<linearGradient id="paint11_linear" x1="11.2946" y1="20.6047" x2="5.73575" y2="20.6047" gradientUnits="userSpaceOnUse">
<stop stop-color="#FF7528"/>
<stop offset="1" stop-color="#FFB120"/>
</linearGradient>
<linearGradient id="paint12_linear" x1="11.8805" y1="33.1367" x2="5.72095" y2="33.1367" gradientUnits="userSpaceOnUse">
<stop stop-color="#FF7528"/>
<stop offset="1" stop-color="#FFB120"/>
</linearGradient>
<linearGradient id="paint13_linear" x1="11.8805" y1="33.1367" x2="5.72095" y2="33.1367" gradientUnits="userSpaceOnUse">
<stop stop-color="#FF7528"/>
<stop offset="1" stop-color="#FFB120"/>
</linearGradient>
<linearGradient id="paint14_linear" x1="9.53675" y1="27.3101" x2="5.78017" y2="27.3101" gradientUnits="userSpaceOnUse">
<stop stop-color="#FF7528"/>
<stop offset="1" stop-color="#FFB120"/>
</linearGradient>
<linearGradient id="paint15_linear" x1="9.53675" y1="27.3101" x2="5.78017" y2="27.3101" gradientUnits="userSpaceOnUse">
<stop stop-color="#FF7528"/>
<stop offset="1" stop-color="#FFB120"/>
</linearGradient>
</defs>
</svg>
