<svg width="51" height="50" viewBox="0 0 51 50" fill="none" xmlns="http://www.w3.org/2000/svg">
<path d="M6.28585 43.2174C6.07923 43.0977 5.84431 43.0354 5.60604 43.0354C4.85646 43.0354 4.24745 43.6444 4.24745 44.3939C4.24745 45.1435 4.85646 45.7525 5.60604 45.7525C6.35561 45.7525 6.96462 45.1435 6.96462 44.3939C6.96462 43.9098 6.70479 43.46 6.28585 43.2174ZM6.28585 43.2174L6.03513 43.65L6.28557 43.2172C6.28567 43.2173 6.28576 43.2174 6.28585 43.2174ZM6.54383 42.7715L6.54388 42.7715C7.12073 43.1055 7.47977 43.7282 7.47977 44.3939C7.47977 45.4267 6.63878 46.2677 5.60604 46.2677C4.57329 46.2677 3.7323 45.4267 3.7323 44.3939C3.7323 43.3612 4.57329 42.5202 5.60604 42.5202C5.93599 42.5202 6.26051 42.6074 6.54383 42.7715Z" fill="url(#paint0_linear)" stroke="url(#paint1_linear)"/>
<path d="M13.9445 44.3939C13.9445 45.4267 13.1035 46.2677 12.0708 46.2677C11.038 46.2677 10.197 45.4267 10.197 44.3939C10.197 43.3612 11.038 42.5202 12.0708 42.5202C12.4007 42.5202 12.7251 42.6073 13.0086 42.7715C13.5855 43.1055 13.9445 43.7282 13.9445 44.3939ZM13.4293 44.3939C13.4293 43.9097 13.1694 43.46 12.7506 43.2174C12.544 43.0977 12.309 43.0354 12.0708 43.0354C11.3212 43.0354 10.7122 43.6444 10.7122 44.3939C10.7122 45.1435 11.3212 45.7525 12.0708 45.7525C12.8203 45.7525 13.4293 45.1435 13.4293 44.3939Z" fill="url(#paint2_linear)" stroke="url(#paint3_linear)"/>
<path d="M20.4091 44.3939C20.4091 45.4267 19.5681 46.2677 18.5354 46.2677C17.5026 46.2677 16.6616 45.4267 16.6616 44.3939C16.6616 43.3612 17.5026 42.5202 18.5354 42.5202C18.8653 42.5202 19.1897 42.6073 19.4732 42.7715C20.0501 43.1055 20.4091 43.7282 20.4091 44.3939ZM19.8939 44.3939C19.8939 43.9097 19.634 43.46 19.2152 43.2174C19.0086 43.0977 18.7736 43.0354 18.5354 43.0354C17.7858 43.0354 17.1768 43.6444 17.1768 44.3939C17.1768 45.1435 17.7858 45.7525 18.5354 45.7525C19.2849 45.7525 19.8939 45.1435 19.8939 44.3939Z" fill="url(#paint4_linear)" stroke="url(#paint5_linear)"/>
<path d="M25 46.2677C26.0327 46.2677 26.8737 45.4267 26.8737 44.3939C26.8737 43.7282 26.5147 43.1055 25.9378 42.7715M25 46.2677L25.9378 42.7715M25 46.2677C23.9672 46.2677 23.1262 45.4267 23.1262 44.3939C23.1262 43.3612 23.9672 42.5202 25 42.5202C25.3299 42.5202 25.6543 42.6074 25.9378 42.7715M25 46.2677L26.1883 42.3388L25.9378 42.7715M26.3585 44.3939C26.3585 43.9097 26.0986 43.46 25.6798 43.2174C25.4732 43.0977 25.2382 43.0354 25 43.0354C24.2504 43.0354 23.6414 43.6444 23.6414 44.3939C23.6414 45.1435 24.2504 45.7525 25 45.7525C25.7495 45.7525 26.3585 45.1435 26.3585 44.3939Z" fill="url(#paint6_linear)" stroke="url(#paint7_linear)"/>
<path d="M7.22227 30.9141H6.41419C6.27195 30.9141 6.15662 30.7988 6.15662 30.6566C6.15662 30.5143 6.27195 30.399 6.41419 30.399H7.22227C7.36451 30.399 7.47985 30.5143 7.47985 30.6566C7.47985 30.7988 7.36451 30.9141 7.22227 30.9141Z" fill="url(#paint8_linear)" stroke="url(#paint9_linear)"/>
<path d="M7.22227 33.3384H6.41419C6.27195 33.3384 6.15662 33.2231 6.15662 33.0808C6.15662 32.9386 6.27195 32.8232 6.41419 32.8232H7.22227C7.36451 32.8232 7.47985 32.9386 7.47985 33.0808C7.47985 33.2231 7.36451 33.3384 7.22227 33.3384Z" fill="url(#paint10_linear)" stroke="url(#paint11_linear)"/>
<mask id="path-7-inside-1" fill="white">
<path d="M50.4867 26.2338L37.6045 1.89192C37.1087 0.778586 35.9923 0 34.697 0C33.6121 0 32.6527 0.546162 32.0782 1.37758C32.0769 1.37929 32.0755 1.38071 32.0741 1.38242L19.7473 17.8118C19.577 17.7897 19.4042 17.7778 19.2297 17.7778H13.6869C11.4869 17.7778 9.69697 19.5677 9.69697 21.7677V26.6667H4.79798C3.48909 26.6667 2.42424 27.7315 2.42424 29.0404V34.697C2.42424 36.0059 3.48909 37.0707 4.79798 37.0707H10.4545H11.3131V38.7879H5.60606C2.51485 38.7879 0 41.3027 0 44.3939C0 47.4851 2.51485 50 5.60606 50H25C28.0912 50 30.6061 47.4851 30.6061 44.3939C30.6061 41.3027 28.0912 38.7879 25 38.7879H19.2929V37.0707H25.8081C26.2265 37.0707 26.5657 36.7315 26.5657 36.3131V33.8385L27.4243 33.8384C27.4345 33.8384 27.4444 33.8373 27.4545 33.8369C27.4703 33.8363 27.4862 33.8361 27.5017 33.8344C27.5097 33.8336 27.5173 33.8319 27.5252 33.8309C27.5424 33.8286 27.5599 33.8265 27.5768 33.823C27.5905 33.8202 27.6038 33.8162 27.6173 33.8126C27.628 33.8098 27.6389 33.8076 27.6494 33.8043C27.6577 33.8017 27.6656 33.7983 27.6737 33.7955C27.689 33.7902 27.7042 33.7852 27.719 33.7789C27.7207 33.7782 27.7223 33.7772 27.7241 33.7765C27.7676 33.7577 27.809 33.7353 27.8477 33.7091C27.8574 33.7025 27.8665 33.695 27.8759 33.6881C27.886 33.6806 27.8964 33.6735 27.9061 33.6656C27.9164 33.6571 27.9259 33.6477 27.9357 33.6387C27.9437 33.6313 27.9521 33.6243 27.9599 33.6167C27.967 33.6096 27.9732 33.6019 27.98 33.5945C27.9897 33.584 27.9997 33.5738 28.0088 33.5628C28.0121 33.5588 28.015 33.5543 28.0182 33.5502C28.03 33.5353 28.0417 33.5203 28.0523 33.5044C28.0572 33.4973 28.0612 33.4896 28.0659 33.4822C28.0742 33.469 28.0827 33.4559 28.0903 33.442C28.1327 33.3639 28.161 33.2772 28.1737 33.1855C28.1785 33.1512 28.1818 33.1165 28.1818 33.0809V30.1896C28.1818 28.759 27.7624 27.3737 26.9688 26.1833L25.7682 24.3825L34.091 10.4095L46.3834 28.6172C46.6705 29.1089 47.1291 29.4883 47.6768 29.6733V30.9242L47.4558 30.3742C47.3808 30.1878 47.235 30.0388 47.0502 29.9599C46.8654 29.8809 46.6568 29.8788 46.4704 29.9536L36.1173 34.1127L34.3336 32.6422C34.0108 32.3761 33.5333 32.422 33.2672 32.7449C33.001 33.0677 33.047 33.5452 33.3698 33.8113L38.9615 38.4212C39.9831 39.2634 41.2474 39.7021 42.5275 39.7021C43.2319 39.7021 43.9413 39.5692 44.6175 39.2976L47.1956 38.2619C48.3071 37.8154 49.0286 36.8082 49.1667 35.696C49.1825 35.6348 49.1919 35.5711 49.1919 35.5051V29.6733C50.1303 29.3564 50.8081 28.4683 50.8081 27.4242C50.8081 26.9906 50.6906 26.584 50.4867 26.2338ZM9.69697 35.5556H4.79798C4.32455 35.5556 3.93939 35.1704 3.93939 34.697V29.0404C3.93939 28.567 4.32455 28.1818 4.79798 28.1818H9.69697V35.5556ZM46.6307 36.856L44.0526 37.8916C42.6627 38.4501 41.0812 38.2051 39.9254 37.252L37.449 35.2105L46.3322 31.6419L47.556 34.6881C47.8986 35.5409 47.4834 36.5134 46.6307 36.856ZM34.697 1.51515C35.3205 1.51515 35.8643 1.8599 36.1501 2.36818C36.1614 2.39818 36.1739 2.42788 36.1893 2.45697L36.2381 2.54919C36.3186 2.74444 36.3636 2.95788 36.3636 3.18182C36.3636 3.49677 36.2742 3.7905 36.1218 4.04202C36.117 4.04949 36.1117 4.05646 36.1071 4.06414L36.0754 4.11737C35.7752 4.55828 35.2694 4.84848 34.697 4.84848C33.778 4.84848 33.0303 4.10081 33.0303 3.18182C33.0303 2.26283 33.778 1.51515 34.697 1.51515ZM25 40.303C27.2558 40.303 29.0909 42.1382 29.0909 44.3939C29.0909 46.6497 27.2558 48.4848 25 48.4848H5.60606C3.3503 48.4848 1.51515 46.6497 1.51515 44.3939C1.51515 42.1382 3.3503 40.303 5.60606 40.303H25ZM12.8283 38.7879V37.0707H17.7778V38.7879H12.8283ZM25.0505 35.5556H11.2121V27.4282C11.2121 27.4269 11.2123 27.4257 11.2123 27.4242C11.2123 27.4228 11.2121 27.4216 11.2121 27.4203V21.7677C11.2121 20.6673 11.9342 19.7327 12.9293 19.412V30.2937C12.9293 31.1952 13.4615 32.0141 14.2852 32.3802C16.4621 33.3478 18.7737 33.8384 21.1561 33.8384H25.0505V35.5556ZM26.6667 30.1895V32.3232H21.1561C20.253 32.3232 19.3614 32.2446 18.4848 32.0907V21.7677C18.4848 21.3493 18.1457 21.0101 17.7273 21.0101C17.3089 21.0101 16.9697 21.3493 16.9697 21.7677V31.7438C16.2674 31.545 15.5767 31.2962 14.9006 30.9957C14.6235 30.8725 14.4444 30.597 14.4444 30.2937V19.2929H19.2298C20.0591 19.2929 20.8289 19.705 21.2889 20.3949L25.7082 27.0237C26.3353 27.9643 26.6667 29.0591 26.6667 30.1895ZM24.8369 22.9855L22.5495 19.5544C22.2096 19.0445 21.7639 18.6302 21.253 18.3295L31.7395 4.35303C32.207 5.52939 33.3561 6.36364 34.697 6.36364C34.7107 6.36364 34.7243 6.36273 34.738 6.36263L24.8369 22.9855ZM46.4892 26.0661L34.948 8.97091L37.3705 4.90384C37.3915 4.87131 37.4122 4.83859 37.4321 4.80525L48.1553 25.0676C47.4671 25.1485 46.8684 25.5247 46.4892 26.0661ZM48.4343 28.2828C47.9609 28.2828 47.5758 27.8977 47.5758 27.4242C47.5758 26.9508 47.9609 26.5657 48.4343 26.5657C48.9078 26.5657 49.2929 26.9508 49.2929 27.4242C49.2929 27.8977 48.9078 28.2828 48.4343 28.2828Z"/>
</mask>
<path d="M50.4867 26.2338L37.6045 1.89192C37.1087 0.778586 35.9923 0 34.697 0C33.6121 0 32.6527 0.546162 32.0782 1.37758C32.0769 1.37929 32.0755 1.38071 32.0741 1.38242L19.7473 17.8118C19.577 17.7897 19.4042 17.7778 19.2297 17.7778H13.6869C11.4869 17.7778 9.69697 19.5677 9.69697 21.7677V26.6667H4.79798C3.48909 26.6667 2.42424 27.7315 2.42424 29.0404V34.697C2.42424 36.0059 3.48909 37.0707 4.79798 37.0707H10.4545H11.3131V38.7879H5.60606C2.51485 38.7879 0 41.3027 0 44.3939C0 47.4851 2.51485 50 5.60606 50H25C28.0912 50 30.6061 47.4851 30.6061 44.3939C30.6061 41.3027 28.0912 38.7879 25 38.7879H19.2929V37.0707H25.8081C26.2265 37.0707 26.5657 36.7315 26.5657 36.3131V33.8385L27.4243 33.8384C27.4345 33.8384 27.4444 33.8373 27.4545 33.8369C27.4703 33.8363 27.4862 33.8361 27.5017 33.8344C27.5097 33.8336 27.5173 33.8319 27.5252 33.8309C27.5424 33.8286 27.5599 33.8265 27.5768 33.823C27.5905 33.8202 27.6038 33.8162 27.6173 33.8126C27.628 33.8098 27.6389 33.8076 27.6494 33.8043C27.6577 33.8017 27.6656 33.7983 27.6737 33.7955C27.689 33.7902 27.7042 33.7852 27.719 33.7789C27.7207 33.7782 27.7223 33.7772 27.7241 33.7765C27.7676 33.7577 27.809 33.7353 27.8477 33.7091C27.8574 33.7025 27.8665 33.695 27.8759 33.6881C27.886 33.6806 27.8964 33.6735 27.9061 33.6656C27.9164 33.6571 27.9259 33.6477 27.9357 33.6387C27.9437 33.6313 27.9521 33.6243 27.9599 33.6167C27.967 33.6096 27.9732 33.6019 27.98 33.5945C27.9897 33.584 27.9997 33.5738 28.0088 33.5628C28.0121 33.5588 28.015 33.5543 28.0182 33.5502C28.03 33.5353 28.0417 33.5203 28.0523 33.5044C28.0572 33.4973 28.0612 33.4896 28.0659 33.4822C28.0742 33.469 28.0827 33.4559 28.0903 33.442C28.1327 33.3639 28.161 33.2772 28.1737 33.1855C28.1785 33.1512 28.1818 33.1165 28.1818 33.0809V30.1896C28.1818 28.759 27.7624 27.3737 26.9688 26.1833L25.7682 24.3825L34.091 10.4095L46.3834 28.6172C46.6705 29.1089 47.1291 29.4883 47.6768 29.6733V30.9242L47.4558 30.3742C47.3808 30.1878 47.235 30.0388 47.0502 29.9599C46.8654 29.8809 46.6568 29.8788 46.4704 29.9536L36.1173 34.1127L34.3336 32.6422C34.0108 32.3761 33.5333 32.422 33.2672 32.7449C33.001 33.0677 33.047 33.5452 33.3698 33.8113L38.9615 38.4212C39.9831 39.2634 41.2474 39.7021 42.5275 39.7021C43.2319 39.7021 43.9413 39.5692 44.6175 39.2976L47.1956 38.2619C48.3071 37.8154 49.0286 36.8082 49.1667 35.696C49.1825 35.6348 49.1919 35.5711 49.1919 35.5051V29.6733C50.1303 29.3564 50.8081 28.4683 50.8081 27.4242C50.8081 26.9906 50.6906 26.584 50.4867 26.2338ZM9.69697 35.5556H4.79798C4.32455 35.5556 3.93939 35.1704 3.93939 34.697V29.0404C3.93939 28.567 4.32455 28.1818 4.79798 28.1818H9.69697V35.5556ZM46.6307 36.856L44.0526 37.8916C42.6627 38.4501 41.0812 38.2051 39.9254 37.252L37.449 35.2105L46.3322 31.6419L47.556 34.6881C47.8986 35.5409 47.4834 36.5134 46.6307 36.856ZM34.697 1.51515C35.3205 1.51515 35.8643 1.8599 36.1501 2.36818C36.1614 2.39818 36.1739 2.42788 36.1893 2.45697L36.2381 2.54919C36.3186 2.74444 36.3636 2.95788 36.3636 3.18182C36.3636 3.49677 36.2742 3.7905 36.1218 4.04202C36.117 4.04949 36.1117 4.05646 36.1071 4.06414L36.0754 4.11737C35.7752 4.55828 35.2694 4.84848 34.697 4.84848C33.778 4.84848 33.0303 4.10081 33.0303 3.18182C33.0303 2.26283 33.778 1.51515 34.697 1.51515ZM25 40.303C27.2558 40.303 29.0909 42.1382 29.0909 44.3939C29.0909 46.6497 27.2558 48.4848 25 48.4848H5.60606C3.3503 48.4848 1.51515 46.6497 1.51515 44.3939C1.51515 42.1382 3.3503 40.303 5.60606 40.303H25ZM12.8283 38.7879V37.0707H17.7778V38.7879H12.8283ZM25.0505 35.5556H11.2121V27.4282C11.2121 27.4269 11.2123 27.4257 11.2123 27.4242C11.2123 27.4228 11.2121 27.4216 11.2121 27.4203V21.7677C11.2121 20.6673 11.9342 19.7327 12.9293 19.412V30.2937C12.9293 31.1952 13.4615 32.0141 14.2852 32.3802C16.4621 33.3478 18.7737 33.8384 21.1561 33.8384H25.0505V35.5556ZM26.6667 30.1895V32.3232H21.1561C20.253 32.3232 19.3614 32.2446 18.4848 32.0907V21.7677C18.4848 21.3493 18.1457 21.0101 17.7273 21.0101C17.3089 21.0101 16.9697 21.3493 16.9697 21.7677V31.7438C16.2674 31.545 15.5767 31.2962 14.9006 30.9957C14.6235 30.8725 14.4444 30.597 14.4444 30.2937V19.2929H19.2298C20.0591 19.2929 20.8289 19.705 21.2889 20.3949L25.7082 27.0237C26.3353 27.9643 26.6667 29.0591 26.6667 30.1895ZM24.8369 22.9855L22.5495 19.5544C22.2096 19.0445 21.7639 18.6302 21.253 18.3295L31.7395 4.35303C32.207 5.52939 33.3561 6.36364 34.697 6.36364C34.7107 6.36364 34.7243 6.36273 34.738 6.36263L24.8369 22.9855ZM46.4892 26.0661L34.948 8.97091L37.3705 4.90384C37.3915 4.87131 37.4122 4.83859 37.4321 4.80525L48.1553 25.0676C47.4671 25.1485 46.8684 25.5247 46.4892 26.0661ZM48.4343 28.2828C47.9609 28.2828 47.5758 27.8977 47.5758 27.4242C47.5758 26.9508 47.9609 26.5657 48.4343 26.5657C48.9078 26.5657 49.2929 26.9508 49.2929 27.4242C49.2929 27.8977 48.9078 28.2828 48.4343 28.2828Z" fill="url(#paint12_linear)" stroke="url(#paint13_linear)" stroke-width="2" mask="url(#path-7-inside-1)"/>
<defs>
<linearGradient id="paint0_linear" x1="7.97977" y1="42.0202" x2="3.11235" y2="42.0202" gradientUnits="userSpaceOnUse">
<stop stop-color="#FF7528"/>
<stop offset="1" stop-color="#FFB120"/>
</linearGradient>
<linearGradient id="paint1_linear" x1="7.97977" y1="42.0202" x2="3.11235" y2="42.0202" gradientUnits="userSpaceOnUse">
<stop stop-color="#FF7528"/>
<stop offset="1" stop-color="#FFB120"/>
</linearGradient>
<linearGradient id="paint2_linear" x1="14.4445" y1="42.0202" x2="9.57707" y2="42.0202" gradientUnits="userSpaceOnUse">
<stop stop-color="#FF7528"/>
<stop offset="1" stop-color="#FFB120"/>
</linearGradient>
<linearGradient id="paint3_linear" x1="14.4445" y1="42.0202" x2="9.57707" y2="42.0202" gradientUnits="userSpaceOnUse">
<stop stop-color="#FF7528"/>
<stop offset="1" stop-color="#FFB120"/>
</linearGradient>
<linearGradient id="paint4_linear" x1="20.9091" y1="42.0202" x2="16.0417" y2="42.0202" gradientUnits="userSpaceOnUse">
<stop stop-color="#FF7528"/>
<stop offset="1" stop-color="#FFB120"/>
</linearGradient>
<linearGradient id="paint5_linear" x1="20.9091" y1="42.0202" x2="16.0417" y2="42.0202" gradientUnits="userSpaceOnUse">
<stop stop-color="#FF7528"/>
<stop offset="1" stop-color="#FFB120"/>
</linearGradient>
<linearGradient id="paint6_linear" x1="27.3737" y1="42.0202" x2="22.5063" y2="42.0202" gradientUnits="userSpaceOnUse">
<stop stop-color="#FF7528"/>
<stop offset="1" stop-color="#FFB120"/>
</linearGradient>
<linearGradient id="paint7_linear" x1="27.3737" y1="42.0202" x2="22.5063" y2="42.0202" gradientUnits="userSpaceOnUse">
<stop stop-color="#FF7528"/>
<stop offset="1" stop-color="#FFB120"/>
</linearGradient>
<linearGradient id="paint8_linear" x1="7.97985" y1="29.899" x2="5.59792" y2="29.899" gradientUnits="userSpaceOnUse">
<stop stop-color="#FF7528"/>
<stop offset="1" stop-color="#FFB120"/>
</linearGradient>
<linearGradient id="paint9_linear" x1="7.97985" y1="29.899" x2="5.59792" y2="29.899" gradientUnits="userSpaceOnUse">
<stop stop-color="#FF7528"/>
<stop offset="1" stop-color="#FFB120"/>
</linearGradient>
<linearGradient id="paint10_linear" x1="7.97985" y1="32.3232" x2="5.59792" y2="32.3232" gradientUnits="userSpaceOnUse">
<stop stop-color="#FF7528"/>
<stop offset="1" stop-color="#FFB120"/>
</linearGradient>
<linearGradient id="paint11_linear" x1="7.97985" y1="32.3232" x2="5.59792" y2="32.3232" gradientUnits="userSpaceOnUse">
<stop stop-color="#FF7528"/>
<stop offset="1" stop-color="#FFB120"/>
</linearGradient>
<linearGradient id="paint12_linear" x1="50.8081" y1="0" x2="-1.28371" y2="0" gradientUnits="userSpaceOnUse">
<stop stop-color="#FF7528"/>
<stop offset="1" stop-color="#FFB120"/>
</linearGradient>
<linearGradient id="paint13_linear" x1="50.8081" y1="0" x2="-1.28371" y2="0" gradientUnits="userSpaceOnUse">
<stop stop-color="#FF7528"/>
<stop offset="1" stop-color="#FFB120"/>
</linearGradient>
</defs>
</svg>
