<svg width="50" height="50" viewBox="0 0 50 50" fill="none" xmlns="http://www.w3.org/2000/svg">
<path d="M46.1667 45.5V45V29.167C46.1666 28.9831 46.0173 28.8339 45.8331 28.834L46.1667 45.5ZM46.1667 45.5H46.6667M46.1667 45.5H46.6667M46.6667 45.5H49.1667C49.3508 45.5 49.5 45.6493 49.5 45.8334C49.5 46.0174 49.3508 46.1667 49.1667 46.1667H46.6667H46.1667V46.6667V49.1667C46.1667 49.3508 46.0174 49.5 45.8334 49.5C45.6493 49.5 45.5 49.3508 45.5 49.1667V46.6667V46.1667H45H34.167C34.0987 46.1666 34.0321 46.1457 33.9761 46.1065L33.9761 46.1065M46.6667 45.5L33.9761 46.1065M33.9761 46.1065C33.8254 46.0011 33.7885 45.7935 33.8938 45.6426L33.9761 46.1065ZM45.5604 28.976L33.894 45.6424L45.5604 28.976ZM45.5604 28.976C45.6227 28.8871 45.7244 28.8341 45.8331 28.834L45.5604 28.976ZM45 45.5H45.5V45V31.81V30.2239L44.5904 31.5233L35.3571 44.7133L34.8064 45.5H35.7667H45Z" fill="url(#paint0_linear)" stroke="url(#paint1_linear)"/>
<path d="M22.8333 35C22.8333 35.1841 22.684 35.3334 22.5 35.3334C22.3159 35.3334 22.1666 35.1841 22.1666 35V34.9999C22.1664 33.7085 22.5717 32.4497 23.3253 31.4008L23.3253 31.4008C25.3113 28.6366 29.1612 28.0045 31.9266 29.9876C34.1696 31.6864 34.693 34.8431 33.1173 37.1751L33.1163 37.1766C33.1088 37.1878 33.1004 37.199 33.0911 37.2101C33.0909 37.2104 33.0907 37.2106 33.0905 37.2108L23.9197 48.0097L23.2202 48.8334H24.3008H34.1666C34.3507 48.8334 34.5 48.9826 34.5 49.1667C34.5 49.3507 34.3507 49.5 34.1666 49.5H22.5002C22.4212 49.5 22.345 49.472 22.2847 49.4209C22.1443 49.3017 22.1271 49.0914 22.2461 48.9511C22.2462 48.9511 22.2462 48.9511 22.2462 48.951L32.5478 36.8161L32.5663 36.7943L32.5821 36.7706C33.9359 34.748 33.486 32.0218 31.5541 30.5415L31.5479 30.5368L31.5416 30.5322C30.6064 29.8605 29.4841 29.4994 28.3327 29.4995C25.2952 29.4998 22.8329 31.9624 22.8333 35ZM22.8333 35H23.3333M22.8333 35H23.3333M23.3333 35C23.333 32.2386 25.5714 29.9998 28.3328 29.9995C29.3794 29.9994 30.3998 30.3277 31.25 30.9384M23.3333 35C23.3333 35.4602 22.9602 35.8334 22.5 35.8334C22.0398 35.8334 21.6666 35.4602 21.6666 35C21.6664 33.6039 22.1045 32.2429 22.9192 31.1091C25.0676 28.119 29.2332 27.4366 32.2233 29.585C34.6825 31.4432 35.2572 34.9011 33.5316 37.455L31.25 30.9384M31.25 30.9384C32.9726 32.2582 33.3737 34.6891 32.1666 36.4925L31.25 30.9384Z" fill="url(#paint2_linear)" stroke="url(#paint3_linear)"/>
<path d="M21.7009 43.8181C21.8836 43.8265 22.0256 43.9807 22.0187 44.1636C22.0119 44.3424 21.8649 44.4841 21.6858 44.4842C21.6858 44.4842 21.6858 44.4842 21.6857 44.4842H21.6643C9.87073 44.0405 0.531929 34.3613 0.511666 22.5583L0.511649 22.5487L0.511267 22.5392C0.510726 22.5256 0.509723 22.5128 0.508429 22.5009C0.510369 22.4829 0.51164 22.463 0.511666 22.4415C0.528267 10.3369 10.3369 0.528267 22.4415 0.511666L22.4512 0.511653L22.4608 0.511267C22.4747 0.510713 22.4878 0.509674 22.5 0.508335C22.5122 0.509674 22.5253 0.510713 22.5392 0.511267L22.5488 0.511652L22.5584 0.511666C34.2518 0.528879 43.8819 9.70429 44.464 21.3832L44.52 22.5082L45.3168 21.712L48.6438 18.3874C48.7733 18.2649 48.9764 18.2657 49.1047 18.3896C49.2363 18.5167 49.2407 18.7259 49.1152 18.8585L44.4068 23.5653C44.4064 23.5657 44.4061 23.566 44.4057 23.5664C44.3781 23.5933 44.3458 23.615 44.3104 23.6305C44.3053 23.6314 44.3 23.6322 44.2947 23.6328L44.2469 23.6386L44.2011 23.6535C44.1857 23.6584 44.1699 23.6622 44.1538 23.6646C44.1404 23.6616 44.127 23.6577 44.1138 23.653L44.0758 23.6393L44.036 23.6318C44.0279 23.6303 44.0196 23.6285 44.0112 23.6264C43.969 23.6064 43.9318 23.5774 43.9021 23.5415L43.887 23.5232L43.8702 23.5064L39.2224 18.8586C39.0999 18.7292 39.1007 18.5261 39.2246 18.3978C39.3518 18.2661 39.561 18.2618 39.6935 18.3873L42.9398 21.6336L43.8682 22.562L43.7925 21.2512C43.1599 10.3003 34.3135 1.62095 23.3527 1.19704L22.8333 1.17696V1.69667V4.16667C22.8333 4.35073 22.6841 4.5 22.5 4.5C22.3159 4.5 22.1667 4.35073 22.1667 4.16667V1.69667V1.17711L21.6475 1.19703C10.5343 1.62362 1.62321 10.5344 1.1962 21.6475L1.17625 22.1667H1.69583H5C5.18407 22.1667 5.33333 22.3159 5.33333 22.5C5.33333 22.6841 5.18407 22.8333 5 22.8333H1.69583H1.176L1.19621 23.3528C1.6294 34.4851 10.565 43.4048 21.6981 43.818L21.7009 43.8181ZM0.48417 22.616L0.484698 22.6141C0.484163 22.616 0.483696 22.6176 0.483697 22.6176L0.48417 22.616Z" fill="url(#paint4_linear)" stroke="url(#paint5_linear)"/>
<path d="M23.3589 20.715L23.6729 20.855L23.916 20.6119L32.871 11.6578C32.871 11.6578 32.871 11.6577 32.871 11.6577C33.0012 11.5277 33.2121 11.5277 33.3422 11.6577C33.4723 11.7878 33.4723 11.9988 33.3423 12.1289C33.3423 12.129 33.3422 12.129 33.3422 12.129L24.3956 21.0756L24.1435 21.3277L24.2997 21.6482C24.6699 22.4076 24.5154 23.3184 23.9154 23.9133L23.9138 23.9149C23.3157 24.5133 22.4053 24.6696 21.6419 24.305L21.6418 24.305C20.6472 23.8299 20.226 22.6384 20.7012 21.6439L20.8536 21.3248L20.6035 21.0748L16.3756 16.8469C16.2532 16.7176 16.254 16.5145 16.378 16.3862L16.378 16.3862C16.505 16.2546 16.7143 16.2502 16.8469 16.3757L21.0831 20.6119L21.3263 20.855L21.6403 20.715C22.1871 20.4711 22.8119 20.4711 23.3589 20.715ZM23.4429 23.4425L23.443 23.4425L23.4431 23.4424L23.4436 23.4418C23.4437 23.4418 23.4437 23.4417 23.4437 23.4417C23.9635 22.9209 23.9632 22.0772 23.4427 21.5568L23.4426 21.5567C22.9219 21.0363 22.0777 21.0363 21.557 21.5571L21.557 21.5572C21.0365 22.0779 21.0365 22.9221 21.5573 23.4428L21.5572 23.4429L21.5653 23.4506C22.0882 23.9505 22.9118 23.9505 23.4347 23.4506L23.4348 23.4507L23.4429 23.4425ZM21.9106 21.9106C22.236 21.5851 22.7636 21.5851 23.0892 21.9104L21.9108 23.0892C21.5853 22.7637 21.5853 22.2361 21.9106 21.9106Z" fill="url(#paint6_linear)" stroke="url(#paint7_linear)"/>
<defs>
<linearGradient id="paint0_linear" x1="50" y1="28.334" x2="32.9127" y2="28.334" gradientUnits="userSpaceOnUse">
<stop stop-color="#FF7528"/>
<stop offset="1" stop-color="#FFB120"/>
</linearGradient>
<linearGradient id="paint1_linear" x1="50" y1="28.334" x2="32.9127" y2="28.334" gradientUnits="userSpaceOnUse">
<stop stop-color="#FF7528"/>
<stop offset="1" stop-color="#FFB120"/>
</linearGradient>
<linearGradient id="paint2_linear" x1="35" y1="28.3319" x2="21.3297" y2="28.3319" gradientUnits="userSpaceOnUse">
<stop stop-color="#FF7528"/>
<stop offset="1" stop-color="#FFB120"/>
</linearGradient>
<linearGradient id="paint3_linear" x1="35" y1="28.3319" x2="21.3297" y2="28.3319" gradientUnits="userSpaceOnUse">
<stop stop-color="#FF7528"/>
<stop offset="1" stop-color="#FFB120"/>
</linearGradient>
<linearGradient id="paint4_linear" x1="49.7064" y1="0" x2="-1.25588" y2="0" gradientUnits="userSpaceOnUse">
<stop stop-color="#FF7528"/>
<stop offset="1" stop-color="#FFB120"/>
</linearGradient>
<linearGradient id="paint5_linear" x1="49.7064" y1="0" x2="-1.25588" y2="0" gradientUnits="userSpaceOnUse">
<stop stop-color="#FF7528"/>
<stop offset="1" stop-color="#FFB120"/>
</linearGradient>
<linearGradient id="paint6_linear" x1="33.9398" y1="11.0602" x2="15.3257" y2="11.0602" gradientUnits="userSpaceOnUse">
<stop stop-color="#FF7528"/>
<stop offset="1" stop-color="#FFB120"/>
</linearGradient>
<linearGradient id="paint7_linear" x1="33.9398" y1="11.0602" x2="15.3257" y2="11.0602" gradientUnits="userSpaceOnUse">
<stop stop-color="#FF7528"/>
<stop offset="1" stop-color="#FFB120"/>
</linearGradient>
</defs>
</svg>
