<svg width="20" height="20" viewBox="0 0 20 20" fill="none" xmlns="http://www.w3.org/2000/svg">
<path d="M19.6111 15.9032L17.3939 14.4249L15.4228 13.1112C15.0425 12.8581 14.5313 12.9411 14.2504 13.3015L13.0308 14.8694C12.7688 15.2097 12.2975 15.3074 11.9218 15.0994C11.0943 14.6391 10.1156 14.2057 7.95637 12.0436C5.7971 9.88156 5.36089 8.90571 4.90055 8.07815C4.69254 7.70245 4.79031 7.23116 5.13054 6.96921L6.69846 5.74958C7.05888 5.4688 7.14189 4.9576 6.88881 4.57717L5.61538 2.66684L4.09677 0.388902C3.83829 0.00117267 3.32088 -0.115232 2.92127 0.124413L1.16989 1.1751C0.696574 1.45397 0.348649 1.90427 0.198182 2.43267C-0.280758 4.17886 -0.377319 8.03088 5.79604 14.2042C11.9694 20.3776 15.8211 20.2807 17.5673 19.8018C18.0957 19.6513 18.546 19.3034 18.8248 18.83L19.8755 17.0787C20.1152 16.6791 19.9988 16.1617 19.6111 15.9032Z" fill="#FAFAFA"/>
<path d="M11.3791 3.10337C14.6151 3.10696 17.2375 5.72935 17.2411 8.96537C17.2411 9.15579 17.3955 9.31021 17.5859 9.31021C17.7764 9.31021 17.9308 9.15583 17.9308 8.96537C17.9268 5.34865 14.9959 2.41771 11.3791 2.41373C11.1887 2.41373 11.0343 2.5681 11.0343 2.75857C11.0343 2.94895 11.1886 3.10337 11.3791 3.10337Z" fill="#FAFAFA"/>
<path d="M11.3791 5.17228C13.473 5.17475 15.1697 6.87152 15.1722 8.96532C15.1722 9.15575 15.3266 9.31016 15.517 9.31016C15.7074 9.31016 15.8619 9.15579 15.8619 8.96532C15.859 6.49078 13.8537 4.48546 11.3791 4.4826C11.1887 4.4826 11.0343 4.63698 11.0343 4.82744C11.0343 5.01791 11.1887 5.17228 11.3791 5.17228Z" fill="#FAFAFA"/>
<path d="M11.3791 7.24125C12.3308 7.24238 13.1021 8.01362 13.1032 8.96537C13.1032 9.15579 13.2576 9.3102 13.4481 9.3102C13.6385 9.3102 13.7929 9.15583 13.7929 8.96537C13.7914 7.63292 12.7116 6.55313 11.3791 6.55161C11.1887 6.55161 11.0343 6.70598 11.0343 6.89644C11.0343 7.08687 11.1886 7.24125 11.3791 7.24125Z" fill="#FAFAFA"/>
</svg>
